<?xml version="1.0" encoding="UTF-8" standalone="no"?>
<!-- Created with Inkscape (http://www.inkscape.org/) -->

<svg
   width="242.12695mm"
   height="184.49562mm"
   viewBox="0 0 242.12695 184.49562"
   version="1.1"
   id="svg1"
   xml:space="preserve"
   inkscape:version="1.4.2 (ebf0e940, 2025-05-08)"
   sodipodi:docname="Cambridge Map.svg"
   xmlns:inkscape="http://www.inkscape.org/namespaces/inkscape"
   xmlns:sodipodi="http://sodipodi.sourceforge.net/DTD/sodipodi-0.dtd"
   xmlns="http://www.w3.org/2000/svg"
   xmlns:svg="http://www.w3.org/2000/svg"><sodipodi:namedview
     id="namedview1"
     pagecolor="#ffffff"
     bordercolor="#999999"
     borderopacity="1"
     inkscape:showpageshadow="2"
     inkscape:pageopacity="0"
     inkscape:pagecheckerboard="0"
     inkscape:deskcolor="#d1d1d1"
     inkscape:document-units="mm"
     inkscape:zoom="0.56907616"
     inkscape:cx="469.18149"
     inkscape:cy="305.75872"
     inkscape:window-width="888"
     inkscape:window-height="949"
     inkscape:window-x="707"
     inkscape:window-y="33"
     inkscape:window-maximized="0"
     inkscape:current-layer="layer3" /><defs
     id="defs1" /><g
     inkscape:label="Layer 1"
     inkscape:groupmode="layer"
     id="layer1"
     style="display:inline;opacity:1"
     transform="translate(-5.7964496,-12.365759)"><path
       style="display:inline;fill:#c6c6c6;fill-opacity:1;stroke:#000000;stroke-width:0;stroke-dasharray:none"
       d="m 111.9794,172.77197 -0.65793,-3.15806 2.36854,-2.63171 1.18427,-2.23696 2.36854,-2.10536 1.8422,0.13158 -0.39476,2.89488 1.97379,0.65793 1.57903,-2.23695 0.65792,-5.65819 0.13159,-2.23695 3.81598,-7.23721 4.34233,-8.02673 0.13159,-2.36854 0.39475,-2.7633 -4.86867,-1.71061 0.39476,-2.63172 1.71062,-0.26317 0.13158,-1.71061 -2.23696,-1.31586 1.18428,-0.65793 h 2.50012 l 1.8422,1.57903 0.52635,1.44744 0.65792,1.05269 0.78952,0.26317 2.89488,0.13159 0.78952,5.26342 -0.52635,2.63171 0.9211,3.81599 -0.78951,0.9211 v 3.28964 l 0.65793,0.65793 -1.05269,3.42123 -1.31586,3.15805 0.52635,5.5266 -0.26317,2.89488 -0.13159,3.02647 0.65793,3.02647 1.71061,1.71062 -0.13158,1.18427 -2.63172,1.97378 -1.97378,-0.26317 -1.71061,-2.36854 -1.31586,0.26317 -4.07916,3.15806 -4.86867,2.89488 -3.94757,-0.39476 -3.28964,-0.52634 -1.44744,-1.71061 z"
       id="path1" /><path
       style="display:inline;fill:#a6d98c;fill-opacity:1;stroke:#5d6bff;stroke-width:0;stroke-dasharray:none;stroke-opacity:1"
       d="m 116.1203,131.75188 -0.55827,-3.9079 h -2.04699 l -1.11655,-3.90789 -9.4906,-3.34963 v -3.90789 l 1.48873,-11.90977 -13.956773,-0.37218 -13.770676,-1.11655 -2.605262,3.16354 -7.629699,1.48872 5.768797,4.46616 2.233081,1.11655 0.930452,4.83834 -7.44361,0.74436 3.163536,7.81579 6.327066,-1.48872 8.001881,6.32707 7.815789,16.37594 2.419172,-0.18609 2.046994,3.34962 1.488721,-0.93045 -1.860902,-2.04699 2.046991,-2.79136 5.954892,2.79136 2.23308,0.37218 1.67481,-1.30263 v -5.7688 l 2.23308,-2.04699 -0.74436,-3.53572 3.34963,-0.37218 z"
       id="path23" /><path
       style="fill:#c6c6c6;fill-opacity:1;stroke:#000000;stroke-width:0;stroke-dasharray:none"
       d="m 104.34743,114.08477 -0.65793,2.7633 1.31586,3.15805 1.44744,1.05269 1.8422,0.52634 5.65818,1.97378 0.52634,3.6844 1.8422,-0.26317 0.65793,3.81598 6.31611,-2.10537 -1.57903,-3.02646 -0.65792,-2.10538 1.57902,-2.63171 1.05269,-2.23696 -1.71061,-1.31585 -0.52635,-3.02647 0.65793,-0.9211 -0.39476,-0.9211 -4.60549,0.26317 0.52634,1.71061 1.57903,0.13159 0.13158,4.6055 -2.50012,0.26317 -1.31586,-1.97379 -0.52635,-1.71061 v -1.44744 l -0.78951,-1.44744 -4.86867,0.65792 0.39476,1.18427 2.50013,0.26317 0.65793,2.36855 -1.18428,1.8422 -1.44744,-0.13159 -0.9211,-1.18427 -1.8422,-0.39476 h -0.65793 l -0.26317,-1.31585 1.18428,-1.57903 -0.78952,-0.65793 z"
       id="path2" /><path
       style="fill:#c6c6c6;fill-opacity:1;stroke:#000000;stroke-width:0;stroke-dasharray:none"
       d="m 147.37594,169.87708 -2.23696,-1.97378 0.13159,-4.73708 4.73708,-2.10537 -0.26317,-3.28965 -3.02647,0.52635 -3.81598,3.28964 -0.52635,-2.23696 -0.78951,-6.97404 3.15805,-1.44744 -0.52634,-6.05294 2.89489,-1.05269 -0.78952,-2.63171 -4.86867,0.9211 -1.05268,-4.34232 -1.57903,0.13158 0.26317,-6.57928 7.3688,-0.78952 1.18427,-3.15805 -5.78977,-0.9211 -0.9211,2.23695 -2.10537,-1.05268 -5.13184,0.39476 -0.52634,-1.44745 2.23695,-1.71061 -0.65793,-0.65793 h -4.07915 l -0.13159,-3.15805 1.71062,-0.9211 -1.8422,-0.78952 -0.26317,-1.57903 -2.36855,-0.13158 -0.52634,-1.8422 -0.65793,-0.9211 -2.36854,0.78951 -0.13158,-2.10537 1.97378,-0.13158 0.9211,-2.89489 -0.13159,-4.73708 0.78952,-1.31586 -0.65793,-1.8422 2.50013,-4.079152 3.81598,3.026472 0.39476,1.8422 7.50038,0.65793 0.13159,-1.8422 6.18452,-0.26318 0.13159,-1.57902 2.23696,-1.184273 3.28964,0.131585 3.02647,-5.789768 8.15831,-3.158056 2.23695,1.579028 -1.8422,4.605498 -2.50012,4.342326 -1.18427,4.73708 1.31585,1.57903 0.65793,3.15806 0.9211,-1.31586 2.36854,1.44744 0.26317,3.02647 2.50013,2.50013 h 2.23696 l 0.13158,2.23696 -1.97378,5.26342 1.57903,4.07916 -2.23696,3.55281 4.6055,3.02647 0.39475,-2.7633 2.50013,1.97379 0.65793,-0.9211 2.23696,2.50013 -1.44745,2.50012 -1.97378,-1.18427 -2.36854,5.13184 7.76355,2.36854 2.89489,0.78952 -2.23696,4.47391 -3.02647,0.26317 -1.05269,3.02647 -1.97378,-0.39475 -1.57903,-2.23696 -0.39476,1.18427 0.39476,4.47391 -2.23695,3.28965 -4.86867,-1.18428 -1.71062,4.21074 -2.10537,3.55282 -4.60549,-0.13159 -3.02648,0.52634 -3.15805,1.44745 z"
       id="path3" /><path
       style="display:inline;fill:#aade87;fill-opacity:1;stroke:#5d6bff;stroke-width:0;stroke-dasharray:none;stroke-opacity:1"
       d="m 111.00282,153.43139 -1.30263,-1.67481 -0.0931,-2.23308 2.32613,-3.25658 0.18609,-3.34963 2.14004,-2.14004 v -2.32612 l 2.97744,-1.95395 -0.27913,-2.04699 2.41917,-0.65132 0.93045,-2.23308 5.21053,-1.95395 0.8374,-1.30263 2.04699,1.0235 0.093,1.39567 -2.51222,0.74436 -0.27914,3.07049 4.9314,1.58177 -1.0235,5.5827 -6.79229,13.11937 -1.0235,8.09492 -1.39568,2.41917 -1.30263,-0.18609 0.74436,-2.6983 -2.51221,-0.65132 -2.14004,2.32613 -3.16354,-0.55827 0.74437,-5.7688 -1.67482,-0.74436 z"
       id="path22" /><path
       style="fill:#c6c6c6;fill-opacity:1;stroke:#000000;stroke-width:0;stroke-dasharray:none"
       d="m 112.50574,108.16341 0.78951,-3.94757 3.94757,0.78952 v -5.131844 l 4.07916,0.657924 1.44744,-0.52634 1.18427,0.65793 0.26317,1.71061 h 1.97379 l 0.52634,-1.97378 1.97378,-2.631716 0.78952,-1.579028 -1.31586,-1.973784 1.31586,-0.394758 2.50013,1.579028 3.68439,-0.394756 3.28965,0.526341 1.84219,1.973787 2.63172,1.973783 3.81598,0.394759 2.36854,-1.973787 0.26318,-1.184269 0.65793,-0.394759 2.10536,1.184273 0.65793,-1.710614 -0.39476,-2.105371 3.42123,-1.973784 1.05269,-2.894885 1.31586,-1.18427 3.02646,-1.315858 3.15806,-1.447442 3.42123,-1.315855 2.7633,-1.184273 -0.65793,-3.158056 0.39476,-1.447443 3.02646,1.315858 1.31586,-0.921099 3.15806,1.710613 0.52634,-2.105372 -3.15805,-1.44744 0.78951,-2.50013 2.50013,1.184273 0.39475,-1.579028 -1.8422,-1.18427 1.31586,-4.605499 -1.18427,-0.263173 -0.78951,2.894886 -1.71062,-0.394756 0.78952,-2.631715 3.15805,-4.737084 -11.05319,-5.789769 -4.47392,5.921357 -1.57902,-7.105626 -2.7633,-0.789514 0.26317,2.500127 -2.36854,0.131585 -0.26318,-3.026471 -6.05293,0.921099 -9.47417,1.315858 v 1.842199 l -4.86867,1.184272 -3.15806,-2.105372 -7.89514,1.447443 1.44744,2.105372 -3.28964,1.579028 2.89489,3.026468 -0.52634,2.236957 -3.02648,0.789514 -2.10536,-1.710614 -2.10538,-0.131585 -0.52634,-0.789514 -3.02647,3.158056 -6.57928,4.86867 -3.6844,2.368542 -0.52634,2.368542 0.13158,3.552811 7.10563,4.605499 -1.71062,3.026471 -1.71061,-0.131588 -0.9211,3.026471 7.10563,2.7633 v 2.105369 l -14.21125,-2.763298 1.97378,-2.368542 -1.05268,-0.657928 0.26317,-1.052685 -1.31586,-0.789514 -2.368541,3.552812 -0.789514,3.026471 -1.447443,3.55281 -2.763298,-0.526339 -2.894885,-0.657929 1.447443,-3.815985 -1.710614,-0.394756 -2.105371,8.158309 2.236957,1.05269 1.052684,-3.15806 4.079155,1.44744 1.842201,1.71062 5.526596,0.52634 4.07916,-0.26317 0.13158,-3.55281 4.6055,0.39475 -1.57903,8.15831 h 3.15806 z"
       id="path4" /><path
       style="display:inline;fill:#44aa00;fill-opacity:1;stroke:#5d6bff;stroke-width:0;stroke-dasharray:none;stroke-opacity:1"
       d="m 113.42684,153.69205 -0.26317,-6.84245"
       id="path21" /><path
       style="fill:#c6c6c6;fill-opacity:1;stroke:#000000;stroke-width:0;stroke-dasharray:none"
       d="m 180.93028,142.90203 3.02647,1.44744 0.9211,0.78951 1.57903,0.52634 -0.78952,3.6844 8.55307,0.13159 -0.39475,-3.15806 6.84245,0.9211 -2.23696,-2.7633 -0.13158,-2.89488 1.71061,0.9211 -0.13158,1.05268 2.23695,0.39476 v 3.42123 l 1.97379,-0.39476 0.52634,-2.23696 0.78951,-0.13158 3.15806,0.26317 -0.26317,-1.31586 1.18427,-1.18427 c 0,0 1.97378,-0.13158 0.52634,-1.05268 -1.44744,-0.9211 -0.13158,-0.78952 -2.10537,-1.05269 -1.97378,-0.26317 -5.00026,-1.18427 -5.00026,-1.18427 l -2.76329,-1.31585 -0.13159,-1.44745 1.57903,-2.36854 0.52634,-2.50013 -0.39475,-2.50012 -1.71062,-2.89489 -1.44744,-1.44744 -0.65793,-0.26317 -0.13158,-1.8422 -2.36855,-1.05269 -1.44744,2.36854 -1.8422,1.44745 0.13159,-1.71062 -1.31586,-0.13158 -0.13159,0.9211 -1.84219,-1.18427 -0.9211,0.39475 -2.23696,-1.18427 -1.8422,1.18427 -0.65793,-1.57902 -1.97378,1.05268 -1.97379,-0.65793 -1.31585,2.7633 1.44744,2.63171 2.7633,-1.71061 1.31585,-1.18427 2.23696,1.8422 -1.97378,1.97378 2.36854,2.63172 2.36854,-0.9211 1.8422,1.18427 -1.05269,2.63171 -1.97378,-1.71061 c 0,0 -1.71062,1.44744 -2.23696,0.9211 -0.52634,-0.52634 -3.15806,-1.57903 -3.15806,-1.57903 l -1.97378,3.42123 3.42123,-1.05269 -0.52634,1.97379 -1.57903,0.78951 -1.57903,1.71061 -0.78951,1.31586 z"
       id="path5" /><path
       style="fill:#c6c6c6;fill-opacity:1;stroke:#000000;stroke-width:0;stroke-dasharray:none"
       d="m 166.71903,95.925946 1.05269,-5.526598 2.76329,-2.500128 3.81599,-0.921099 2.89488,0.131585 4.86867,0.263171 3.94757,1.052687 0.26317,2.236954 3.28964,1.315858 0.39476,-2.105372 0.39476,-2.105369 2.23696,-0.394758 c 0,0 -0.52635,-1.052685 0,-1.052685 0.52634,0 5.52659,2.105372 5.52659,2.105372 v 2.763298 l -1.57902,1.447442 -1.84221,2.105369 v 3.815985 l 1.05269,1.710612 -4.34233,0.52635 0.52635,1.97378 -2.10537,0.39476 -1.44745,-2.89489 -3.55281,2.89489 -0.78951,3.55281 -1.97379,1.57903 -1.71061,0.78951 -2.7633,-1.8422 -0.9211,1.71062 -1.31586,-4.21074 c 0,0 0.13159,0.65792 -0.78951,0.65792 -0.9211,0 -4.07916,-0.13158 -4.07916,-0.13158 l -2.36854,-1.57903 c 0,0 -2.23695,-0.78952 -2.23695,-1.44744 0,-0.65793 0.13158,-2.500129 0.13158,-3.158058 0,-0.657929 0.65793,-3.158056 0.65793,-3.158056 z"
       id="path6" /><path
       style="fill:#c6c6c6;fill-opacity:1;stroke:#000000;stroke-width:0;stroke-dasharray:none"
       d="m 99.215587,86.057022 2.236953,-1.579028 -1.18427,-2.105372 c 0,0 -0.394754,-2.105371 0.13159,-2.500127 0.52634,-0.394758 3.02647,-4.342326 3.02647,-4.342326 l 2.10537,-3.026471 1.57903,-1.315857 v -3.421227 l -1.97379,0.657929 -4.86867,-3.026471 -4.210739,-2.894885 0.526343,-2.105369 1.315855,-2.7633 -0.921099,-2.236955 0.789514,-3.02647 -2.105369,-1.315858 -1.579028,-1.447443 -1.052687,-3.289641 0.921099,-2.236954 0.263173,-1.184273 0.9211,-1.184269 -1.710614,-1.315858 -1.447442,2.105372 -2.368542,-1.447443 -1.447443,3.026471 1.973786,1.842198 0.657926,1.18427 -1.579025,1.447443 -3.421229,0.131585 0.131585,2.894886 1.447443,2.763297 0.921099,2.500127 0.526344,0.921102 -0.657929,1.973784 2.7633,1.973784 2.631713,-0.394756 1.184269,1.710613 1.315858,3.815985 v 2.631713 l 1.973784,2.236956 -0.9211,2.763298 -1.579028,1.710613 -1.710613,1.710616 v 4.605497 l 2.7633,1.447442 z"
       id="path7" /><path
       style="fill:#c6c6c6;fill-opacity:1;stroke:#000000;stroke-width:0;stroke-dasharray:none"
       d="m 60.266233,104.34743 1.184269,2.10537 4.079156,-1.8422 0.394758,2.63171 5.263425,-1.97378 3.552814,-0.78952 1.18427,-2.36854 c 0,0 0.394758,-0.78951 -1.052684,-1.31585 -1.447443,-0.52635 -3.026471,-1.447448 -3.026471,-1.447448 0,0 -1.447443,-0.921099 -2.105372,-0.921099 -0.657926,0 -4.342326,-0.131585 -4.342326,-0.131585 l -0.921099,2.894882 1.447443,0.39476 z"
       id="path8" /><path
       style="fill:#c6c6c6;fill-opacity:1;stroke:#000000;stroke-width:0;stroke-dasharray:none"
       d="m 118.16392,56.976591 4.6055,0.263171 -0.26317,-4.737084 1.18427,-3.94757 -1.57903,-5.526598 2.50013,0.131585 -0.39476,-2.500127 3.28964,0.789514 c 0,0 1.31586,-2.368542 1.97379,-1.973784 0.65793,0.394756 2.10537,1.315857 2.10537,1.315857 l 2.89488,-7.105626 -4.47391,-1.842201 -1.05268,1.710616 -2.10538,-1.315857 -3.68439,-1.973787 v -1.842198 l 2.50013,-1.447443 0.13158,-1.447441 1.71061,0.9211 0.52635,-2.368543 -5.26343,-3.02647 0.78951,-1.842199 -5.13184,-2.894884 -1.8422,2.236956 -3.02647,-0.526343 -1.31585,3.552813 0.78951,1.579028 -1.05268,1.579028 2.10537,2.10537 -1.18427,1.184272 -10.26369,-3.158057 -0.26317,1.842199 4.73709,3.158057 2.76329,2.368542 0.13159,3.552811 -2.63171,4.210743 2.63171,0.789514 0.78951,-1.447442 1.84221,0.921099 2.10536,-3.289641 1.57903,3.289641 -0.9211,2.894883 1.57903,2.894885 -0.13158,5.395013 0.92109,2.894883 z"
       id="path9" /><path
       style="fill:#c6c6c6;fill-opacity:1;stroke:#000000;stroke-width:0;stroke-dasharray:none"
       d="m 58.687205,143.1652 0.789514,2.10537 1.579028,0.65793 1.184269,3.68439 h 4.210741 l 2.105371,2.7633 v 3.28964 l 4.079156,-0.92109 -0.9211,-3.42123 1.315855,-2.10537 -3.026468,-1.57903 0.657929,-1.44744 1.44744,-1.57903 -5.263425,-1.18427 -0.789514,1.71061 -1.710613,-0.78951 -0.921099,1.18427 z"
       id="path10" /><path
       style="fill:#c6c6c6;fill-opacity:1;stroke:#000000;stroke-width:0;stroke-dasharray:none"
       d="m 93.162645,148.42862 0.526344,2.63172 3.158056,0.65792 1.447443,2.36855 3.158052,-1.18428 3.55282,1.71062 c 0,0 1.57902,0.65793 1.57902,-0.78951 0,-1.44745 0,-3.28964 0,-3.28964 l -0.78951,-1.31586 c 0,0 -1.44744,-0.52635 -2.7633,-1.05269 -1.31586,-0.52634 -3.684398,-1.05268 -3.684398,-1.05268 l -1.315857,1.8422 1.842201,1.44744 c 0,0 0,0.65793 -0.526344,0.65793 -0.526343,0 0.131585,1.44744 -1.447443,0 -1.579028,-1.44745 -2.763297,-2.36855 -2.763297,-2.36855 z"
       id="path11" /><path
       style="fill:#c6c6c6;fill-opacity:1;stroke:#000000;stroke-width:0;stroke-dasharray:none"
       d="m 165.99531,50.857858 -0.46055,1.513235 3.22385,2.105371 0.26317,1.842199 6.25032,1.579028 -0.52634,-1.381649 -3.09227,-1.184273 -0.32896,-1.644819 2.10537,0.592135 0.72372,-2.368542 -2.10537,-1.118478 0.19738,-1.907993 h 1.8422 l 1.05268,-1.513234 1.97379,0.26317 c 0,0 -0.59214,1.513235 -0.19738,1.710614 0.39475,0.197379 1.90799,1.052684 1.90799,1.052684 0,0 2.30275,-0.197376 2.30275,-0.592135 0,-0.394755 -0.32896,-5.921353 -0.32896,-5.921353 0,0 -1.25007,-0.657929 -1.71062,-0.657929 -0.46055,0 -1.51323,-0.328965 -1.51323,-0.328965 l -0.39476,-1.315855 1.90799,-0.131587 1.64482,1.513236 2.63172,0.394756 c 0,0 2.6975,-0.06579 1.44744,-0.789514 -1.25007,-0.72372 -4.6055,-2.236957 -4.6055,-2.236957 l -0.46055,-2.171163 -2.82909,-1.118478 -1.57903,-0.657926 -5.06605,1.579028 -3.42122,2.368539 -2.17117,3.289644 -0.78951,3.947568 -0.0658,1.381651 1.51323,0.131585 z"
       id="path12" /><path
       style="fill:#c6c6c6;fill-opacity:1;stroke:#000000;stroke-width:0;stroke-dasharray:none"
       d="m 197.81391,107.65319 1.02349,2.23309 v 2.69831 l 5.58271,2.51221 0.83741,1.0235 -1.0235,1.48872 0.55827,1.30263 5.67575,0.46523 -1.58176,-3.25658 -1.67482,-0.65132 -0.093,-3.81485 -4.65226,-2.41917 c 0,0 0.0931,2.14004 -0.27913,1.58177 -0.37218,-0.55827 -4.37312,-3.16354 -4.37312,-3.16354 z"
       id="path13" /><path
       style="fill:#aca793;fill-opacity:1;stroke:#000000;stroke-width:0;stroke-dasharray:none"
       d="m 172.87782,117.70207 7.07143,4.00094 4.28007,-2.69831 6.79229,0.093 4.18703,-4.7453 2.41918,-0.8374 0.18609,-5.95489 6.97838,-8.094926 -7.90883,-0.09304 -1.39568,1.395676 -3.16353,0.37218 0.27913,1.67481 -3.07049,0.83741 -1.30263,-2.60527 -2.60526,2.04699 -1.0235,4.37312 -4.28007,2.047 -2.60527,-1.67482 z"
       id="path14" /><path
       style="fill:#c7c7c7;fill-opacity:1;stroke:#000000;stroke-width:0;stroke-dasharray:none"
       d="m 217.90585,140.79665 -0.26317,2.89489 5.00026,0.26317 -1.8422,3.15806 h 5.78977 l -1.84221,3.42122 9.73734,1.8422 -0.52634,2.10537 6.57928,3.42123 v -4.21074 l -2.36854,-1.05269 1.57903,-5.00025 1.31586,-2.89489 -4.73709,-3.68439 v -2.63172 l -3.6844,0.26317 0.26318,1.31586 z"
       id="path15" /><path
       style="fill:#c7c7c7;fill-opacity:1;stroke:#000000;stroke-width:0;stroke-dasharray:none"
       d="m 15.527108,140.79665 0.789514,2.36855 2.631713,-0.52635 2.368542,4.47392 10.263681,-3.42123 -2.894883,-4.21074 7.105623,-0.78952 2.894886,-1.05268 -1.315858,-5.26343 v -5.5266 l -3.684397,0.26318 -0.789514,4.21074 1.052685,3.42122 v 1.05269 l -5.526598,0.78951 -0.789514,-7.10562 -2.894884,2.10537 0.789514,6.05294 -2.368542,1.31586 h -5.000255 l -1.052685,-2.36855 -3.158056,1.05269 z"
       id="path16" /><path
       style="display:inline;fill:#aca793;fill-opacity:1;stroke:#5d6bff;stroke-width:0;stroke-dasharray:none;stroke-opacity:1"
       d="m 155.27108,52.371093 0.26317,-2.368543 -7.10563,-5.000254 6.84246,-10.000512 2.63171,2.631715 -1.31586,2.368542 1.8422,1.052685 -3.42122,4.473911 7.63196,3.421229 0.52635,2.105369 c 0,0 0.52634,2.631715 -0.78952,2.631715 -1.31585,0 -7.10562,-1.315857 -7.10562,-1.315857 z"
       id="path20" /><path
       style="fill:none;fill-opacity:1;stroke:#5d6bff;stroke-width:1;stroke-dasharray:none;stroke-opacity:1"
       d="m 211.85291,21.053705 -3.15805,3.421227 -4.47392,1.8422 -2.63171,3.684398 -2.36854,2.894885 -1.31586,4.210741 v 6.842453 l -2.10537,3.684399 -3.15805,2.631713 -1.05269,4.473914 -6.05294,2.631712 -2.10537,4.473914 v 4.737081 l -1.05269,2.631715 0.26317,2.631713 -3.15805,1.315857 0.52634,6.579283 -6.57928,3.158056 -6.31611,1.315855 -3.42123,2.368542 -3.15806,1.052687 -2.10537,1.315855 -1.8422,3.94757 -3.42122,3.158056 -0.78952,2.631712 -3.15805,-0.26317 -2.89489,2.105367 -3.6844,-0.52634 -2.63171,-1.579027 -0.78951,-2.368542 -3.94757,-0.526344 -3.42123,0.789514 -2.63171,1.842202 -2.36855,3.158057 -1.05268,3.94757 -0.78951,5.26342 1.31585,3.6844 -0.26317,3.15806 2.89489,3.15805 v 2.10537 l -1.31586,3.42123 -2.63171,2.10537 -2.63172,1.8422 -2.89488,0.52634 -0.52635,2.36855 -2.89488,0.52634 -0.52634,3.15805 -2.63171,1.05269 -0.26317,2.89488 -1.57903,1.8422 -0.52635,4.73709 -2.10537,2.89488 0.26318,3.15806 1.31585,1.05268 v 3.94757 l 1.57903,0.52635 -0.78952,6.84245 -3.68439,0.78951 -3.42123,3.42123 -4.737083,3.15806 0.26317,3.94757 3.158053,1.84219 1.31586,1.8422 -3.42123,3.6844 v 3.42123 l -1.579027,1.57903 0.526344,3.15805"
       id="path18" /><path
       style="fill:#5e6cff;fill-opacity:1;stroke:#5d6bff;stroke-width:1;stroke-dasharray:none;stroke-opacity:1"
       d="m 172.90356,121.05881 -3.15806,-1.05269 -0.26317,3.6844 2.89488,2.10537 v 2.10537 l 4.21074,1.8422 0.52635,2.10537 5.00025,2.10537 v -2.63171 l -5.00025,-2.89489 -1.31586,-1.8422 -2.63171,-2.10537 z"
       id="path19" /><path
       style="fill:#a6d98c;fill-opacity:1;stroke:#5d6bff;stroke-width:0;stroke-dasharray:none;stroke-opacity:1"
       d="m 161.58719,104.74219 1.97378,2.89488 -0.13158,1.97378 3.15805,1.05269 0.52635,3.15805 3.81598,2.23696 2.23696,-1.44744 3.15805,-5.5266 -1.71061,-3.15806 -4.86867,-0.13158 -1.57903,-1.31586 -2.50013,-2.10537 -0.26317,-3.552811 h -1.57902 z"
       id="path24" /><path
       style="fill:#a6d98c;fill-opacity:1;stroke:#5d6bff;stroke-width:0;stroke-dasharray:none;stroke-opacity:1"
       d="m 158.95548,91.320447 0.65792,-1.842199 6.4477,-2.500127 0.52634,-1.579028 c 0,0 7.23721,-1.447443 7.76356,-1.579028 0.52634,-0.131585 6.4477,-3.421226 6.4477,-3.421226 l 0.13158,-6.316112 2.50013,-1.973787 7.23721,-2.500127 5.00025,6.71087 c 0,0 3.42123,5.658184 3.42123,6.31611 0,0.657929 0.26317,5.263427 0.26317,5.263427 l -7.76355,-2.631712 v 1.842198 l -3.02647,1.18427 0.78951,2.631715 -1.97378,-0.394758 -0.78952,-2.894883 c 0,0 -11.18478,-1.052687 -11.97429,-1.052687 -0.78952,0 -5.26343,1.315857 -5.26343,1.315857 l -2.50012,3.026471 -2.23696,-0.921099 z"
       id="path25" /><path
       style="fill:#a6d98c;fill-opacity:1;stroke:#5d6bff;stroke-width:0;stroke-dasharray:none;stroke-opacity:1"
       d="m 171.85087,128.29602 -2.23696,2.63171 3.02647,2.63171 0.9211,-2.7633 2.36855,1.71062 -0.26317,-1.97379 z"
       id="path26" /><path
       style="fill:#a6d98c;fill-opacity:1;stroke:#5d6bff;stroke-width:0;stroke-dasharray:none;stroke-opacity:1"
       d="m 172.11404,117.90075 -0.9211,1.71061 2.89489,0.78952 0.13158,3.15805 3.28964,2.7633 v 2.10537 l 5.5266,2.23696 1.05269,-0.65793 -0.9211,-1.8422 1.97378,-1.31586 -1.44744,-1.18426 -3.42123,2.23695 -1.44744,-0.52634 -1.44744,-3.02647 2.10537,-2.50013 z"
       id="path27" /><path
       style="fill:#a6d98c;fill-opacity:1;stroke:#5d6bff;stroke-width:0;stroke-dasharray:none;stroke-opacity:1"
       d="m 180.93028,122.24308 3.15806,-2.50013 8.28989,0.13159 2.63172,-5.26343 3.02647,-0.9211 1.8422,1.71061 -0.26318,4.73709 -1.18427,3.15805 -3.55281,-2.50012 -1.44744,3.28964 -4.07916,-1.8422 -1.18427,1.18427 -2.23695,-1.8422 c 0,0 -1.18427,2.50013 -1.44745,1.97378 -0.26317,-0.52634 -1.97378,-2.10537 -1.97378,-2.10537 l -2.63171,0.9211 z"
       id="path28" /><path
       style="fill:#a6d98c;fill-opacity:1;stroke:#5d6bff;stroke-width:0;stroke-dasharray:none;stroke-opacity:1"
       d="m 74.901316,98.162593 1.023495,-2.605262 1.767856,0.558271 c 0,0 0.930452,-1.209588 0.465228,-1.209588 -0.465228,0 -1.953948,-0.558271 -1.953948,-0.558271 l 0.465224,-1.581766 7.164475,-0.18609 7.6297,2.233081 4.55921,0.651317 -1.302631,4.37312 -3.721807,-1.581766 0.837406,-2.698308 -3.070486,-0.744363 -1.860905,8.281012 -6.792291,-0.27913 0.372179,-1.58177 -5.861841,-2.233081 z"
       id="path29" /><path
       style="fill:#a6d98c;fill-opacity:1;stroke:#5d6bff;stroke-width:0;stroke-dasharray:none;stroke-opacity:1"
       d="m 96.301691,91.463346 2.140037,-3.163536 -1.302631,-2.140037 h 2.326127 c 0,0 2.046996,-1.209585 2.419176,-1.581767 0.37218,-0.372181 0,-2.419172 0,-2.419172 l 1.67481,-1.023496 0.27913,1.767856 6.23403,3.535714 -0.18609,2.32613 -2.79136,0.651314 -0.46522,3.442671 6.23402,2.605262 0.093,1.395677 -12.09586,-2.046994 2.23308,-2.419173 -1.39567,-0.558271 v -1.767855 l -1.953951,-0.558271 -2.791354,3.907893 -2.419172,-0.186089 z"
       id="path30" /><path
       style="fill:#a6d98c;fill-opacity:1;stroke:#5d6bff;stroke-width:0;stroke-dasharray:none;stroke-opacity:1"
       d="m 103.95267,112.50574 0.9211,-6.97404 2.23696,-0.13159 v -3.42123 l 3.28964,-0.13158 -1.71061,7.63197 4.21074,0.39475 1.05268,-4.73708 4.47391,0.26317 -0.39475,-5.13184 5.26342,1.18427 -0.26317,2.10537 1.71062,-0.26317 -0.65793,6.57928 1.31585,4.47392 -0.26317,3.02647 2.89489,3.6844 -0.13159,2.63171 -1.71061,2.89488 -2.63172,0.78952 c 0,0 -2.36854,-3.02647 -1.8422,-3.6844 0.52635,-0.65793 2.7633,-5.00026 2.7633,-5.00026 l -1.97378,-1.71061 -0.65793,-2.7633 0.52634,-1.57902 -1.44744,-1.18428 -5.39501,1.05269 1.31586,2.36854 c 0,0 1.57902,-0.26317 1.84219,0.52634 0.26317,0.78952 0.39476,3.81599 0.39476,3.81599 l -1.57903,0.13158 -2.10537,-2.23695 -0.26317,-3.28965 -0.78951,-1.18426 -5.65818,0.52634 0.78951,1.97378 2.36854,0.13159 0.26317,1.97378 -0.78951,1.8422 -0.9211,-0.52634 -0.9211,-1.31586 c 0,0 -1.97379,0.39476 -1.97379,-0.26317 0,-0.65793 0,-1.44744 0,-1.44744 l 0.52635,-1.31586 -0.52635,-0.65793 z"
       id="path31" /><path
       style="fill:#a6d98c;fill-opacity:1;stroke:#5d6bff;stroke-width:0;stroke-dasharray:none;stroke-opacity:1"
       d="m 138.5597,170.79819 -1.71061,-3.02647 0.13158,-4.47392 0.52634,-4.21074 -0.9211,-2.7633 2.36855,-9.07941 c 0,0 -1.05269,0 -1.05269,-0.65793 0,-0.65792 0.39476,-2.23695 0.39476,-2.23695 l 0.65793,-2.23696 -0.78952,-2.36854 0.13159,-3.55281 -0.9211,-5.65819 -3.55281,0.26317 -1.8422,-2.76329 7.76355,-0.13159 2.10537,1.05269 0.52634,-2.10538 3.94757,0.78952 -0.52634,2.63171 -6.84245,1.31586 0.13158,7.50038 h 1.18427 l 1.8422,3.42123 4.07916,-0.78951 0.26317,1.71061 -3.02647,1.71061 0.39475,6.18453 -2.89488,1.44744 1.71061,10.1321 4.07916,-4.47392 2.36854,-0.13158 0.39476,2.63171 -4.73709,3.02647 0.65793,5.13184 z"
       id="path32" /><path
       style="fill:#a6d98c;fill-opacity:1;stroke:#5d6bff;stroke-width:0;stroke-dasharray:none;stroke-opacity:1"
       d="m 130.07242,98.426073 3.55282,3.158057 0.39475,1.44744 7.17142,0.59214 -0.46055,-1.71062 5.39502,-0.0658 -0.0658,-0.65793 -3.94757,-0.39475 -2.69751,-1.513239 -1.05268,-2.565921 -3.02647,-0.263171 -3.09226,0.657926 z"
       id="path33" /><text
       xml:space="preserve"
       style="font-style:normal;font-variant:normal;font-weight:normal;font-stretch:normal;font-size:10.7187px;font-family:'Bodoni MT';-inkscape-font-specification:'Bodoni MT';text-align:start;writing-mode:lr-tb;direction:ltr;text-anchor:start;fill:#1a1a1a;fill-opacity:1;stroke:#5d6bff;stroke-width:0;stroke-dasharray:none;stroke-opacity:1"
       x="108.92558"
       y="188.86197"
       id="text35"><tspan
         sodipodi:role="line"
         id="tspan35"
         style="font-style:normal;font-variant:normal;font-weight:normal;font-stretch:normal;font-family:'Bodoni MT';-inkscape-font-specification:'Bodoni MT';fill:#1a1a1a;stroke-width:0"
         x="108.92558"
         y="188.86197">CAMBRIDGE</tspan></text><text
       xml:space="preserve"
       style="font-style:normal;font-variant:normal;font-weight:normal;font-stretch:normal;font-size:4.23333px;font-family:'Bodoni MT';-inkscape-font-specification:'Bodoni MT';text-align:start;writing-mode:lr-tb;direction:ltr;text-anchor:start;fill:#1a1a1a;fill-opacity:1;stroke:#5d6bff;stroke-width:0;stroke-dasharray:none;stroke-opacity:1"
       x="103.06737"
       y="127.9893"
       id="text36"><tspan
         sodipodi:role="line"
         id="tspan36"
         style="stroke-width:0"
         x="103.06737"
         y="127.9893">Newnham</tspan></text><text
       xml:space="preserve"
       style="font-style:normal;font-variant:normal;font-weight:normal;font-stretch:normal;font-size:4.23333px;font-family:'Bodoni MT';-inkscape-font-specification:'Bodoni MT';text-align:start;writing-mode:lr-tb;direction:ltr;text-anchor:start;fill:#1a1a1a;fill-opacity:1;stroke:#5d6bff;stroke-width:0;stroke-dasharray:none;stroke-opacity:1"
       x="147.37593"
       y="77.898712"
       id="text37"><tspan
         sodipodi:role="line"
         id="tspan37"
         style="stroke-width:0"
         x="147.37593"
         y="77.898712">Chesterton</tspan></text><text
       xml:space="preserve"
       style="font-style:normal;font-variant:normal;font-weight:normal;font-stretch:normal;font-size:4.23333px;font-family:'Bodoni MT';-inkscape-font-specification:'Bodoni MT';text-align:start;writing-mode:lr-tb;direction:ltr;text-anchor:start;fill:#1a1a1a;fill-opacity:1;stroke:#5d6bff;stroke-width:0;stroke-dasharray:none;stroke-opacity:1"
       x="87.109703"
       y="55.79232"
       id="text38"><tspan
         sodipodi:role="line"
         id="tspan38"
         style="stroke-width:0"
         x="87.109703"
         y="55.79232">Girton</tspan></text><text
       xml:space="preserve"
       style="font-style:normal;font-variant:normal;font-weight:normal;font-stretch:normal;font-size:4.23333px;font-family:'Bodoni MT';-inkscape-font-specification:'Bodoni MT';text-align:start;writing-mode:lr-tb;direction:ltr;text-anchor:start;fill:#1a1a1a;fill-opacity:1;stroke:#5d6bff;stroke-width:0;stroke-dasharray:none;stroke-opacity:1"
       x="87.835358"
       y="105.55588"
       id="text39"><tspan
         sodipodi:role="line"
         id="tspan39"
         style="stroke-width:0"
         x="87.835358"
         y="105.55588">Eddington</tspan></text><text
       xml:space="preserve"
       style="font-style:normal;font-variant:normal;font-weight:normal;font-stretch:normal;font-size:4.23333px;font-family:'Bodoni MT';-inkscape-font-specification:'Bodoni MT';text-align:start;writing-mode:lr-tb;direction:ltr;text-anchor:start;fill:#1a1a1a;fill-opacity:1;stroke:#5d6bff;stroke-width:0;stroke-dasharray:none;stroke-opacity:1"
       x="112.90051"
       y="169.7455"
       id="text40"><tspan
         sodipodi:role="line"
         id="tspan40"
         style="stroke-width:0"
         x="112.90051"
         y="169.7455">Trumpington</tspan></text><text
       xml:space="preserve"
       style="font-style:normal;font-variant:normal;font-weight:normal;font-stretch:normal;font-size:4.23333px;font-family:'Bodoni MT';-inkscape-font-specification:'Bodoni MT';text-align:start;writing-mode:lr-tb;direction:ltr;text-anchor:start;fill:#1a1a1a;fill-opacity:1;stroke:#5d6bff;stroke-width:0;stroke-dasharray:none;stroke-opacity:1"
       x="179.48283"
       y="141.05983"
       id="text41"><tspan
         sodipodi:role="line"
         id="tspan41"
         style="stroke-width:0"
         x="179.48283"
         y="141.05983">Cherry Hinton</tspan></text><text
       xml:space="preserve"
       style="font-style:normal;font-variant:normal;font-weight:normal;font-stretch:normal;font-size:4.23333px;font-family:'Bodoni MT';-inkscape-font-specification:'Bodoni MT';text-align:start;writing-mode:lr-tb;direction:ltr;text-anchor:start;fill:#1a1a1a;fill-opacity:1;stroke:#5d6bff;stroke-width:0;stroke-dasharray:none;stroke-opacity:1"
       x="222.64291"
       y="146.32324"
       id="text42"><tspan
         sodipodi:role="line"
         id="tspan42"
         style="stroke-width:0"
         x="222.64291"
         y="146.32324">Fulbourn</tspan></text><text
       xml:space="preserve"
       style="font-style:normal;font-variant:normal;font-weight:normal;font-stretch:normal;font-size:4.23333px;font-family:'Bodoni MT';-inkscape-font-specification:'Bodoni MT';text-align:start;writing-mode:lr-tb;direction:ltr;text-anchor:start;fill:#1a1a1a;fill-opacity:1;stroke:#5d6bff;stroke-width:0;stroke-dasharray:none;stroke-opacity:1"
       x="153.27245"
       y="138.69676"
       id="text43"><tspan
         sodipodi:role="line"
         id="tspan43"
         style="stroke-width:0"
         x="153.27245"
         y="138.69676">Petersfield</tspan></text><text
       xml:space="preserve"
       style="font-style:normal;font-variant:normal;font-weight:normal;font-stretch:normal;font-size:4.23333px;font-family:'Bodoni MT';-inkscape-font-specification:'Bodoni MT';text-align:start;writing-mode:lr-tb;direction:ltr;text-anchor:start;fill:#1a1a1a;fill-opacity:1;stroke:#5d6bff;stroke-width:0;stroke-dasharray:none;stroke-opacity:1"
       x="112.37416"
       y="35.001781"
       id="text44"><tspan
         sodipodi:role="line"
         id="tspan44"
         style="stroke-width:0"
         x="112.37416"
         y="35.001781">Histon</tspan></text><text
       xml:space="preserve"
       style="font-style:normal;font-variant:normal;font-weight:normal;font-stretch:normal;font-size:4.23333px;font-family:'Bodoni MT';-inkscape-font-specification:'Bodoni MT';text-align:start;writing-mode:lr-tb;direction:ltr;text-anchor:start;fill:#1a1a1a;fill-opacity:1;stroke:#5d6bff;stroke-width:0;stroke-dasharray:none;stroke-opacity:1"
       x="165.99249"
       y="46.336468"
       id="text45"><tspan
         sodipodi:role="line"
         id="tspan45"
         style="stroke-width:0"
         x="165.99249"
         y="46.336468">Milton</tspan></text><text
       xml:space="preserve"
       style="font-style:normal;font-variant:normal;font-weight:normal;font-stretch:normal;font-size:4.23333px;font-family:'Bodoni MT';-inkscape-font-specification:'Bodoni MT';text-align:start;writing-mode:lr-tb;direction:ltr;text-anchor:start;fill:#1a1a1a;fill-opacity:1;stroke:#5d6bff;stroke-width:0;stroke-dasharray:none;stroke-opacity:1"
       x="173.25"
       y="94.347748"
       id="text46"><tspan
         sodipodi:role="line"
         id="tspan46"
         style="stroke-width:0"
         x="173.25"
         y="94.347748">Barnwell</tspan></text><text
       xml:space="preserve"
       style="font-style:normal;font-variant:normal;font-weight:normal;font-stretch:normal;font-size:4.23333px;font-family:'Bodoni MT';-inkscape-font-specification:'Bodoni MT';text-align:start;writing-mode:lr-tb;direction:ltr;text-anchor:start;fill:#1a1a1a;fill-opacity:1;stroke:#5d6bff;stroke-width:0;stroke-dasharray:none;stroke-opacity:1"
       x="63.270676"
       y="103.46616"
       id="text47"><tspan
         sodipodi:role="line"
         id="tspan47"
         style="stroke-width:0"
         x="63.270676"
         y="103.46616">Coton</tspan></text><text
       xml:space="preserve"
       style="font-style:normal;font-variant:normal;font-weight:normal;font-stretch:normal;font-size:4.23333px;font-family:'Bodoni MT';-inkscape-font-specification:'Bodoni MT';text-align:start;writing-mode:lr-tb;direction:ltr;text-anchor:start;fill:#1a1a1a;fill-opacity:1;stroke:#5d6bff;stroke-width:0;stroke-dasharray:none;stroke-opacity:1"
       x="61.037594"
       y="149.98872"
       id="text48"><tspan
         sodipodi:role="line"
         id="tspan48"
         style="stroke-width:0"
         x="61.037594"
         y="149.98872">Barton</tspan></text><text
       xml:space="preserve"
       style="font-style:normal;font-variant:normal;font-weight:normal;font-stretch:normal;font-size:4.23333px;font-family:'Bodoni MT';-inkscape-font-specification:'Bodoni MT';text-align:start;writing-mode:lr-tb;direction:ltr;text-anchor:start;fill:#1a1a1a;fill-opacity:1;stroke:#5d6bff;stroke-width:0;stroke-dasharray:none;stroke-opacity:1"
       x="15.631577"
       y="141.42857"
       id="text49"><tspan
         sodipodi:role="line"
         id="tspan49"
         style="stroke-width:0"
         x="15.631577"
         y="141.42857">Comberton</tspan></text><text
       xml:space="preserve"
       style="font-style:normal;font-variant:normal;font-weight:normal;font-stretch:normal;font-size:4.23333px;font-family:'Bodoni MT';-inkscape-font-specification:'Bodoni MT';text-align:start;writing-mode:lr-tb;direction:ltr;text-anchor:start;fill:#1a1a1a;fill-opacity:1;stroke:#5d6bff;stroke-width:0;stroke-dasharray:none;stroke-opacity:1"
       x="125.98308"
       y="63.270679"
       id="text50"><tspan
         sodipodi:role="line"
         id="tspan50"
         style="stroke-width:0"
         x="125.98308"
         y="63.270679">Orchard Park</tspan></text><text
       xml:space="preserve"
       style="font-style:normal;font-variant:normal;font-weight:normal;font-stretch:normal;font-size:4.23333px;font-family:'Bodoni MT';-inkscape-font-specification:'Bodoni MT';text-align:start;writing-mode:lr-tb;direction:ltr;text-anchor:start;fill:#1a1a1a;fill-opacity:1;stroke:#5d6bff;stroke-width:0;stroke-dasharray:none;stroke-opacity:1"
       x="120.77255"
       y="82.624054"
       id="text51"><tspan
         sodipodi:role="line"
         id="tspan51"
         style="stroke-width:0"
         x="120.77255"
         y="82.624054">Arbury</tspan></text><path
       style="fill:#a6d98c;fill-opacity:1;stroke:#5d6bff;stroke-width:0;stroke-dasharray:none;stroke-opacity:1"
       d="m 129.67767,95.925946 -1.05269,-1.513237 0.78952,-0.26317 1.57902,0.921099 z"
       id="path34" /><path
       style="fill:#a6d98c;fill-opacity:1;stroke:#5d6bff;stroke-width:0;stroke-dasharray:none;stroke-opacity:1"
       d="m 174.36654,141.33553 1.76786,-4.09399 1.76785,0.74436 1.76786,-3.25658 3.44267,1.0235 -3.72181,3.07049 -0.55827,2.6983 1.58177,1.11655 -0.46522,0.55827 z"
       id="path35" /><text
       xml:space="preserve"
       style="font-style:normal;font-variant:normal;font-weight:normal;font-stretch:normal;font-size:4.23333px;font-family:'Bodoni MT';-inkscape-font-specification:'Bodoni MT';text-align:start;writing-mode:lr-tb;direction:ltr;text-anchor:start;fill:#1a1a1a;fill-opacity:1;stroke:#5d6bff;stroke-width:0;stroke-dasharray:none;stroke-opacity:1"
       x="83.554512"
       y="157.80452"
       id="text52"><tspan
         sodipodi:role="line"
         id="tspan52"
         style="stroke-width:0"
         x="83.554512"
         y="157.80452">Grantchester</tspan></text></g><g
     inkscape:groupmode="layer"
     id="layer3"
     inkscape:label="Layer 3"
     style="display:inline"
     transform="translate(-5.7964496,-12.365759)"><circle
       style="display:inline;opacity:1;fill:#1a1a1a;fill-opacity:1;stroke:#5d6bff;stroke-width:0;stroke-dasharray:none;stroke-opacity:1"
       id="path51-60-80"
       cx="167.57451"
       cy="51.578976"
       r="1.4421992"
       inkscape:label="v37" /><circle
       style="display:inline;opacity:1;fill:#1a1a1a;fill-opacity:1;stroke:#5d6bff;stroke-width:0;stroke-dasharray:none;stroke-opacity:1"
       id="path51-60-74"
       cx="161.91905"
       cy="60.427078"
       r="1.4421992"
       inkscape:label="v36" /><circle
       style="display:inline;opacity:1;fill:#1a1a1a;fill-opacity:1;stroke:#5d6bff;stroke-width:0;stroke-dasharray:none;stroke-opacity:1"
       id="path51-9"
       cx="93.534393"
       cy="70.046898"
       r="1.4421992"
       inkscape:label="v35" /><circle
       style="display:inline;opacity:1;fill:#1a1a1a;fill-opacity:1;stroke:#5d6bff;stroke-width:0;stroke-dasharray:none;stroke-opacity:1"
       id="path51-3"
       cx="140.19852"
       cy="72.705078"
       r="1.4421992"
       inkscape:label="v34" /><circle
       style="display:inline;opacity:1;fill:#1a1a1a;fill-opacity:1;stroke:#5d6bff;stroke-width:0;stroke-dasharray:none;stroke-opacity:1"
       id="path51-4"
       cx="114.44838"
       cy="75.836426"
       r="1.4421992"
       inkscape:label="v33" /><circle
       style="display:inline;opacity:1;fill:#ff00ff;fill-opacity:1;stroke:#5d6bff;stroke-width:0;stroke-dasharray:none;stroke-opacity:1"
       id="path51-60-07-82-8"
       cx="171.69981"
       cy="77.173882"
       r="1.4421992"
       inkscape:label="v32" /><circle
       style="display:inline;opacity:1;fill:#1a1a1a;fill-opacity:1;stroke:#5d6bff;stroke-width:0;stroke-dasharray:none;stroke-opacity:1"
       id="path51-60-25"
       cx="183.47412"
       cy="81.612358"
       r="1.4421992"
       inkscape:label="v31" /><circle
       style="display:inline;opacity:1;fill:#1a1a1a;fill-opacity:1;stroke:#5d6bff;stroke-width:0;stroke-dasharray:none;stroke-opacity:1"
       id="path51-5"
       cx="97.477127"
       cy="87.736938"
       r="1.4421992"
       inkscape:label="v30" /><circle
       style="display:inline;opacity:1;fill:#1a1a1a;fill-opacity:1;stroke:#5d6bff;stroke-width:0;stroke-dasharray:none;stroke-opacity:1"
       id="path51-60-6"
       cx="150.17287"
       cy="92.022743"
       r="1.4421992"
       inkscape:label="v29" /><circle
       style="display:inline;opacity:1;fill:#1a1a1a;fill-opacity:1;stroke:#5d6bff;stroke-width:0;stroke-dasharray:none;stroke-opacity:1"
       id="path51-2"
       cx="104.70554"
       cy="93.76458"
       r="1.4421992"
       inkscape:label="v28" /><circle
       style="display:inline;opacity:1;fill:#d40000;fill-opacity:1;stroke:#5d6bff;stroke-width:0;stroke-dasharray:none;stroke-opacity:1"
       id="path51-86"
       cx="132.30951"
       cy="96.139229"
       r="1.4421992"
       inkscape:label="v27" /><circle
       style="display:inline;opacity:1;fill:#1a1a1a;fill-opacity:1;stroke:#5d6bff;stroke-width:0;stroke-dasharray:none;stroke-opacity:1"
       id="path51-60"
       cx="125.79636"
       cy="98.015114"
       r="1.4421992"
       inkscape:label="v26" /><circle
       style="display:inline;opacity:1;fill:#1a1a1a;fill-opacity:1;stroke:#5d6bff;stroke-width:0;stroke-dasharray:none;stroke-opacity:1"
       id="path51-60-50"
       cx="167.86246"
       cy="97.41584"
       r="1.4421992"
       inkscape:label="v25" /><circle
       style="display:inline;opacity:1;fill:#d40000;fill-opacity:1;stroke:#5d6bff;stroke-width:0;stroke-dasharray:none;stroke-opacity:1"
       id="path51-60-5"
       cx="146.69844"
       cy="100.39636"
       r="1.4421992"
       inkscape:label="v24" /><circle
       style="display:inline;opacity:1;fill:#1a1a1a;fill-opacity:1;stroke:#5d6bff;stroke-width:0;stroke-dasharray:none;stroke-opacity:1"
       id="path51-6"
       cx="111.77609"
       cy="-100.36153"
       r="1.4421992"
       transform="scale(1,-1)"
       inkscape:label="v23" /><circle
       style="display:inline;opacity:1;fill:#1a1a1a;fill-opacity:1;stroke:#5d6bff;stroke-width:0;stroke-dasharray:none;stroke-opacity:1"
       id="path51-1"
       cx="100.41092"
       cy="100.72489"
       r="1.4421992"
       inkscape:label="v22" /><circle
       style="display:inline;opacity:1;fill:#1a1a1a;fill-opacity:1;stroke:#5d6bff;stroke-width:0;stroke-dasharray:none;stroke-opacity:1"
       id="path51-60-834"
       cx="187.19382"
       cy="100.92553"
       r="1.4421992"
       inkscape:label="v21" /><circle
       style="display:inline;opacity:1;fill:#1a1a1a;fill-opacity:1;stroke:#5d6bff;stroke-width:0;stroke-dasharray:none;stroke-opacity:1"
       id="path51-60-66"
       cx="134.81204"
       cy="103.9259"
       r="1.4421992"
       inkscape:label="v20" /><circle
       style="display:inline;opacity:1;fill:#1a1a1a;fill-opacity:1;stroke:#5d6bff;stroke-width:0;stroke-dasharray:none;stroke-opacity:1"
       id="path51-60-3"
       cx="143.87225"
       cy="106.75518"
       r="1.4421992"
       inkscape:label="v19" /><circle
       style="display:inline;opacity:1;fill:#d40000;fill-opacity:1;stroke:#5d6bff;stroke-width:0;stroke-dasharray:none;stroke-opacity:1"
       id="path51-7"
       cx="125.34877"
       cy="106.50515"
       r="1.4421992"
       inkscape:label="v18" /><circle
       style="display:inline;opacity:1;fill:#1a1a1a;fill-opacity:1;stroke:#5d6bff;stroke-width:0;stroke-dasharray:none;stroke-opacity:1"
       id="path51-60-58"
       cx="118.28043"
       cy="109.51479"
       r="1.4421992"
       inkscape:label="v17" /><circle
       style="display:inline;opacity:1;fill:#1a1a1a;fill-opacity:1;stroke:#5d6bff;stroke-width:0;stroke-dasharray:none;stroke-opacity:1"
       id="path51-60-9"
       cx="128.65121"
       cy="-110.59869"
       r="1.4421992"
       transform="scale(1,-1)"
       inkscape:label="v16" /><circle
       style="display:inline;opacity:1;fill:#ddff55;fill-opacity:1;stroke:#5d6bff;stroke-width:0;stroke-dasharray:none;stroke-opacity:1"
       id="path51-60-63"
       cx="135.44925"
       cy="111.98864"
       r="1.4421992"
       inkscape:label="v15" /><circle
       style="display:inline;opacity:1;fill:#1a1a1a;fill-opacity:1;stroke:#5d6bff;stroke-width:0;stroke-dasharray:none;stroke-opacity:1"
       id="path51-60-81"
       cx="146.5679"
       cy="112.77004"
       r="1.4421992"
       inkscape:label="v14" /><circle
       style="display:inline;opacity:1;fill:#1a1a1a;fill-opacity:1;stroke:#5d6bff;stroke-width:0;stroke-dasharray:none;stroke-opacity:1"
       id="path51-60-73"
       cx="138.8831"
       cy="120.69035"
       r="1.4421992"
       inkscape:label="v13" /><circle
       style="display:inline;opacity:1;fill:#1a1a1a;fill-opacity:1;stroke:#5d6bff;stroke-width:0;stroke-dasharray:none;stroke-opacity:1"
       id="path51-60-8"
       cx="131.7711"
       cy="121.03695"
       r="1.4421992"
       inkscape:label="v12" /><circle
       style="display:inline;opacity:1;fill:#1a1a1a;fill-opacity:1;stroke:#5d6bff;stroke-width:0;stroke-dasharray:none;stroke-opacity:1"
       id="path51-60-0"
       cx="111.45903"
       cy="121.31608"
       r="1.4421992"
       inkscape:label="v11" /><circle
       style="display:inline;opacity:1;fill:#d40000;fill-opacity:1;stroke:#5d6bff;stroke-width:0;stroke-dasharray:none;stroke-opacity:1"
       id="path51-60-57"
       cx="126.56453"
       cy="125.38054"
       r="1.4421992"
       inkscape:label="v10" /><circle
       style="display:inline;opacity:1;fill:#1a1a1a;fill-opacity:1;stroke:#5d6bff;stroke-width:0;stroke-dasharray:none;stroke-opacity:1"
       id="path51-60-82-4"
       cx="170.24637"
       cy="126.06094"
       r="1.4421992"
       inkscape:label="v9" /><circle
       style="display:inline;opacity:1;fill:#ff00ff;fill-opacity:1;stroke:#5d6bff;stroke-width:0;stroke-dasharray:none;stroke-opacity:1"
       id="path51-60-07-82"
       cx="149.99164"
       cy="128.8091"
       r="1.4421992"
       inkscape:label="v8" /><circle
       style="display:inline;opacity:1;fill:#1a1a1a;fill-opacity:1;stroke:#5d6bff;stroke-width:0;stroke-dasharray:none;stroke-opacity:1"
       id="path51-60-7"
       cx="139.21779"
       cy="129.12262"
       r="1.4421992"
       inkscape:label="v7" /><circle
       style="display:inline;opacity:1;fill:#1a1a1a;fill-opacity:1;stroke:#5d6bff;stroke-width:0;stroke-dasharray:none;stroke-opacity:1"
       id="path51-60-39"
       cx="112.11652"
       cy="137.99631"
       r="1.4421992"
       inkscape:label="v6" /><circle
       style="display:inline;opacity:1;fill:#1a1a1a;fill-opacity:1;stroke:#5d6bff;stroke-width:0;stroke-dasharray:none;stroke-opacity:1"
       id="path51-60-98"
       cx="147.37842"
       cy="143.22403"
       r="1.4421992"
       inkscape:label="v5" /><circle
       style="display:inline;opacity:1;fill:#1a1a1a;fill-opacity:1;stroke:#5d6bff;stroke-width:0;stroke-dasharray:none;stroke-opacity:1"
       id="path51-60-83"
       cx="103.39013"
       cy="150.5649"
       r="1.4421992"
       inkscape:label="v4" /><circle
       style="display:inline;opacity:1;fill:#1a1a1a;fill-opacity:1;stroke:#5d6bff;stroke-width:0;stroke-dasharray:none;stroke-opacity:1"
       id="path51-60-51"
       cx="183.31281"
       cy="152.53075"
       r="1.4421992"
       inkscape:label="v3" /><circle
       style="display:inline;opacity:1;fill:#1a1a1a;fill-opacity:1;stroke:#5d6bff;stroke-width:0;stroke-dasharray:none;stroke-opacity:1"
       id="path51-60-07"
       cx="154.11691"
       cy="160.10797"
       r="1.4421992"
       inkscape:label="v2" /><circle
       style="display:inline;opacity:1;fill:#1a1a1a;fill-opacity:1;stroke:#5d6bff;stroke-width:0;stroke-dasharray:none;stroke-opacity:1"
       id="path51-60-988"
       cx="123.75996"
       cy="159.7133"
       r="1.4421992"
       inkscape:label="v1" /><circle
       style="display:inline;opacity:1;fill:#ff00ff;fill-opacity:1;stroke:#5d6bff;stroke-width:0;stroke-dasharray:none;stroke-opacity:1"
       id="path51-60-07-8"
       cx="143.23154"
       cy="162.76485"
       r="1.4421992"
       inkscape:label="v0" /></g></svg>
